<svg aria-hidden="true" focusable="false" data-prefix="fas" data-icon="sign-out-alt" class="svg-inline--fa fa-sign-out-alt fa-w-16" role="img" xmlns="http://www.w3.org/2000/svg" viewBox="0 0 512 512">
    <text x="160" y="480" font-family="Verdana" font-size="24" fill="black">LEAVE</text>
    <path fill="black" d="M400 344v-40h-96v-56c0-13.255-10.745-24-24-24h-96c-13.255 0-24 10.745-24 24v56h-96v40h96v128h96V344h96zM416 64c8.836 0 16 7.164 16 16v144c0 8.836-7.164 16-16 16h-96v128c0 17.673-14.327 32-32 32h-96c-17.673 0-32-14.327-32-32V320H96c-8.836 0-16-7.164-16-16V80c0-8.836 7.164-16 16-16h320zM384 232c13.255 0 24-10.745 24-24v-80c0-13.255-10.745-24-24-24h-96c-13.255 0-24 10.745-24 24v80c0 13.255 10.745 24 24 24h96z"></path>
</svg>
